<!-- Icon made by freepik[http://www.flaticon.com/authors/freeepik] from www.flaticon.com  -->

<svg width="29" height="27" viewBox="0 0 29 27" xmlns="http://www.w3.org/2000/svg">
    <title>Computer Code Icon</title>
    <path fill="#171F39" fill-rule="evenodd" d="M26.445.03H2.485C1.114.03 0 1.153 0 2.53V20.846c0 1.38 1.114 2.5 2.484 2.5h7.863v1.726H7.295c-.5 0-.907.408-.907.912s.406.912.907.912h14.338c.5 0 .906-.408.906-.912s-.406-.912-.907-.912H18.58v-1.726h7.865c1.37 0 2.483-1.12 2.483-2.5V2.53c0-1.378-1.114-2.5-2.483-2.5zM2.485 1.857h23.96c.37 0 .67.302.67.674V3.9H1.813V2.53c0-.372.3-.674.67-.674zm24.63 15.797H1.813V5.723h25.302v11.93zm-10.347 7.42h-4.61v-1.727h4.61v1.726zm9.677-3.55H2.483c-.37 0-.67-.304-.67-.677v-1.368h25.302v1.368c0 .373-.3.676-.67.676zM11.9 15.174c.233 0 .465-.09.642-.267l5.116-5.15c.354-.355.354-.933 0-1.29-.354-.355-.928-.355-1.282 0l-5.116 5.15c-.354.356-.354.933 0 1.29.177.177.41.267.64.267zm-3.168-.268c.177.178.408.267.64.267.232 0 .464-.09.64-.267.355-.356.355-.933 0-1.29l-1.876-1.89 1.888-1.9c.354-.356.354-.933 0-1.29-.354-.356-.928-.356-1.28 0l-2.53 2.546c-.354.356-.354.934 0 1.29l2.518 2.534zm10.173 0c.177.178.41.267.64.267.233 0 .465-.09.642-.267l2.528-2.545c.17-.17.266-.403.266-.645s-.095-.474-.265-.645l-2.518-2.535c-.354-.356-.928-.356-1.282 0-.354.357-.354.934 0 1.29l1.878 1.89-1.888 1.9c-.354.357-.354.934 0 1.29z"/>
</svg>
