<!-- Icon made by designmodo[http://www.flaticon.com/authors/designmodo] from www.flaticon.com  -->

<svg width="32" height="28" viewBox="0 0 32 28" xmlns="http://www.w3.org/2000/svg">
    <title>Graduation Cap Icon</title>
    <path fill="#171F39" fill-rule="evenodd" d="M32 26c0 1.104-.896 2-2 2-1.105 0-2-.896-2-2s.895-4 2-4c1.104 0 2 2.896 2 4zm-3-15v9c0 .553.447 1 1 1 .552 0 1-.447 1-1v-9c0-.553-.448-1-1-1-.553 0-1 .447-1 1zm.674-2.076L27 9.54V18c0 2.654-3.038 5-11 5S5 20.654 5 18V9.54l-2.675-.616C.957 8.608 0 7.406 0 6s.956-2.608 2.326-2.924l13-3C15.555.024 15.778 0 16 0c.22 0 .443.024.66.073l13.014 3.003C31.044 3.392 32 4.594 32 6s-.957 2.608-2.326 2.924zM25 10.004l-8.326 1.92c-.23.052-.453.076-.674.076-.22 0-.444-.024-.662-.073L7 10.003V18c0 1.105 3 3 9 3s9-1.895 9-3v-7.997zm4.225-3.03C29.678 6.87 30 6.467 30 6c0-.466-.322-.87-.775-.975l-13-3L16 2l-.225.025-13 3C2.32 5.13 2 5.535 2 6c0 .466.32.87.775.975l13 3L16 10l.225-.025 13-3z"/>
</svg>
